<?xml version="1.0" encoding="UTF-8" standalone="no"?>
<svg
   xmlns:dc="http://purl.org/dc/elements/1.1/"
   xmlns:cc="http://creativecommons.org/ns#"
   xmlns:rdf="http://www.w3.org/1999/02/22-rdf-syntax-ns#"
   xmlns:svg="http://www.w3.org/2000/svg"
   xmlns="http://www.w3.org/2000/svg"
   viewBox="0 0 305 270"
   height="270"
   width="305"
   xml:space="preserve"
   version="1.1"
   id="svg2"><metadata
     id="metadata8"><rdf:RDF><cc:Work
         rdf:about=""><dc:format>image/svg+xml</dc:format><dc:type
           rdf:resource="http://purl.org/dc/dcmitype/StillImage" /></cc:Work></rdf:RDF></metadata><defs
     id="defs6" /><g
     transform="matrix(1.25,0,0,-1.25,0,270)"
     id="g10"><g
       transform="scale(0.1,0.1)"
       id="g12"><path
         id="path14"
         style="fill:#0977b6;fill-opacity:1;fill-rule:nonzero;stroke:none"
         d="m 2000.01,2160 -1840.569,0 C 71.4453,2160 0,2090.23 0,2004.38 L 0,155.859 C 0,69.8398 71.4453,0 159.441,0 L 2000.01,0 C 2088.1,0 2160,69.8398 2160,155.859 l 0,1848.521 c 0,85.85 -71.9,155.62 -159.99,155.62" /><path
         id="path16"
         style="fill:#ffffff;fill-opacity:1;fill-rule:nonzero;stroke:none"
         d="m 480.371,1862.62 c 102.422,0 185.664,-83.24 185.664,-185.71 0,-102.57 -83.242,-185.82 -185.664,-185.82 -102.695,0 -185.703,83.25 -185.703,185.82 0,102.47 83.008,185.71 185.703,185.71 m -160.273,-512.46 320.507,0 0,-1030.789 -320.507,0 0,1030.789" /><path
         id="path18"
         style="fill:#ffffff;fill-opacity:1;fill-rule:nonzero;stroke:none"
         d="m 841.543,1350.16 307.347,0 0,-140.78 4.37,0 c 42.78,81.01 147.31,166.48 303.17,166.48 324.18,0 384.06,-213.44 384.06,-491.09 l 0,-565.399 -320,0 0,501.25 c 0,119.609 -2.35,273.359 -166.53,273.359 -166.71,0 -192.14,-130.23 -192.14,-264.679 l 0,-509.93 -320.277,0 0,1030.789" /><path
         id="path20"
         style="fill:#231f20;fill-opacity:1;fill-rule:nonzero;stroke:none"
         d="m 2229.23,415.309 30.78,0 0,-95.938 16.72,0 0,95.938 30.7,0 0,16.722 -78.2,0 0,-16.722" /><path
         id="path22"
         style="fill:#231f20;fill-opacity:1;fill-rule:nonzero;stroke:none"
         d="m 2416.18,432.031 -32.85,-82.66 -32.81,82.66 -23.83,0 0,-112.66 16.64,0 0,85.707 34.45,-85.707 11.14,0 34.45,85.707 0,-85.707 16.64,0 0,112.66 -23.83,0" /></g></g></svg>